<?xml version="1.0" encoding="UTF-8" standalone="no"?>
<!-- Created with Inkscape (http://www.inkscape.org/) -->

<svg
   width="25.830448mm"
   height="25.400108mm"
   viewBox="0 0 25.830448 25.400108"
   version="1.1"
   id="svg5"
   xml:space="preserve"
   inkscape:version="1.2.2 (732a01da63, 2022-12-09)"
   sodipodi:docname="github_logo.svg"
   xmlns:inkscape="http://www.inkscape.org/namespaces/inkscape"
   xmlns:sodipodi="http://sodipodi.sourceforge.net/DTD/sodipodi-0.dtd"
   xmlns="http://www.w3.org/2000/svg"
   xmlns:svg="http://www.w3.org/2000/svg"><sodipodi:namedview
     id="namedview7"
     pagecolor="#505050"
     bordercolor="#eeeeee"
     borderopacity="1"
     inkscape:showpageshadow="0"
     inkscape:pageopacity="0"
     inkscape:pagecheckerboard="0"
     inkscape:deskcolor="#505050"
     inkscape:document-units="mm"
     showgrid="false"
     inkscape:zoom="0.914906"
     inkscape:cx="194.009"
     inkscape:cy="-62.301482"
     inkscape:window-width="2560"
     inkscape:window-height="1377"
     inkscape:window-x="-8"
     inkscape:window-y="255"
     inkscape:window-maximized="1"
     inkscape:current-layer="layer1" /><defs
     id="defs2" /><g
     inkscape:label="Calque 1"
     inkscape:groupmode="layer"
     id="layer1"
     transform="translate(-100.15873,-126.6904)"><path
       fill-rule="evenodd"
       clip-rule="evenodd"
       d="m 113.08469,126.6904 c -7.14772,0 -12.92596,5.82084 -12.92596,13.022 0,5.75628 3.70232,10.62884 8.83841,12.3534 0.64214,0.12964 0.87736,-0.2802 0.87736,-0.62495 0,-0.30189 -0.0212,-1.33667 -0.0212,-2.41485 -3.59569,0.77629 -4.34446,-1.55231 -4.34446,-1.55231 -0.57785,-1.50918 -1.43404,-1.89706 -1.43404,-1.89706 -1.17686,-0.79772 0.0857,-0.79772 0.0857,-0.79772 1.30545,0.0863 1.99046,1.33667 1.99046,1.33667 1.15543,1.98332 3.01731,1.42293 3.76634,1.07792 0.10689,-0.84085 0.44953,-1.42293 0.81333,-1.74625 -2.86782,-0.30189 -5.88513,-1.42293 -5.88513,-6.42488 0,-1.42293 0.5133,-2.5871 1.32662,-3.4925 -0.12832,-0.32332 -0.57785,-1.66026 0.12859,-3.44964 0,0 1.09141,-0.34502 3.5523,1.33668 a 12.427479,12.427479 0 0 1 3.23162,-0.43127 c 1.0914,0 2.20398,0.15107 3.23135,0.43127 2.46116,-1.6817 3.55257,-1.33668 3.55257,-1.33668 0.70643,1.78938 0.25664,3.12632 0.12832,3.44964 0.83476,0.9054 1.32688,2.06957 1.32688,3.4925 0,5.00195 -3.0173,6.10129 -5.90655,6.42488 0.47095,0.40957 0.87735,1.18559 0.87735,2.41458 0,1.74625 -0.0212,3.14775 -0.0212,3.57876 0,0.34501 0.23548,0.75485 0.87736,0.62547 5.13609,-1.72508 8.83841,-6.59738 8.83841,-12.35366 0.0212,-7.20116 -5.77823,-13.022 -12.90452,-13.022 z"
       fill="#ffffff"
       id="path9"
       style="fill:#54ecc4;fill-opacity:1;stroke-width:0.264583" /></g></svg>
